<?xml version="1.0" standalone="no"?>
<!DOCTYPE svg PUBLIC "-//W3C//DTD SVG 20010904//EN"
 "http://www.w3.org/TR/2001/REC-SVG-20010904/DTD/svg10.dtd">
<svg version="1.0" xmlns="http://www.w3.org/2000/svg"
 width="260.000000pt" height="260.000000pt" viewBox="0 0 260.000000 260.000000"
 preserveAspectRatio="xMidYMid meet">
<metadata>
Created by potrace 1.14, written by Peter Selinger 2001-2017
</metadata>
<g transform="translate(0.000000,260.000000) scale(0.100000,-0.100000)"
fill="#000000" stroke="none">
<path d="M0 1300 l0 -1300 1300 0 1300 0 0 755 c0 426 -4 755 -9 755 -5 0 -13
-6 -19 -12 -5 -7 -83 -250 -173 -540 l-163 -528 -37 0 -38 0 -25 82 c-91 291
-235 711 -240 698 -3 -8 -62 -186 -130 -395 l-124 -380 -38 0 -38 0 -166 535
-166 535 -62 3 c-58 3 -62 4 -62 27 l0 25 225 0 225 0 0 -25 c0 -24 -2 -25
-65 -25 -36 0 -65 -3 -65 -7 1 -5 52 -181 114 -392 l113 -385 36 110 c20 60
77 236 127 392 l91 282 43 0 42 0 124 -380 c68 -209 127 -380 130 -380 4 0 58
170 122 378 l115 377 -64 3 c-59 3 -63 4 -63 27 l0 25 120 0 120 0 0 520 0
520 -1300 0 -1300 0 0 -1300z m390 20 l0 -820 26 -10 c14 -6 50 -10 80 -10 51
0 54 -1 54 -25 l0 -25 -252 2 -253 3 -3 23 c-3 21 0 22 60 22 109 0 99 -86 96
805 l-3 780 -75 5 c-68 5 -75 7 -78 28 -3 22 -1 22 105 23 88 1 189 9 236 18
4 0 7 -368 7 -819z m700 215 c0 -24 -3 -25 -59 -25 l-60 0 -117 -132 c-65 -73
-146 -164 -180 -203 l-62 -70 197 -285 c108 -157 204 -296 213 -310 15 -20 28
-25 83 -28 55 -4 65 -7 65 -23 0 -10 -3 -20 -7 -22 -5 -3 -77 -6 -161 -8
l-152 -4 -205 298 c-113 165 -205 301 -205 303 0 2 95 110 212 241 l212 238
-62 3 c-58 3 -62 4 -62 27 l0 25 175 0 175 0 0 -25z"/>
</g>
</svg>
